<svg width="1440" height="2560" viewBox="0 0 390 844" xmlns="http://www.w3.org/2000/svg">
  <rect width="390" height="844" fill="#0f0e0d"/>
  <rect width="390" height="516" fill="#111009"/>
  <!-- Stars -->
  <circle cx="35" cy="47" r="1.4" fill="#d4cfc8" opacity="0.5"/>
  <circle cx="88" cy="28" r="1" fill="#d4cfc8" opacity="0.4"/>
  <circle cx="137" cy="70" r="1.2" fill="#d4cfc8" opacity="0.35"/>
  <circle cx="195" cy="19" r="1.6" fill="#d4cfc8" opacity="0.5"/>
  <circle cx="254" cy="52" r="1" fill="#d4cfc8" opacity="0.4"/>
  <circle cx="303" cy="33" r="1.4" fill="#d4cfc8" opacity="0.45"/>
  <circle cx="356" cy="82" r="1.2" fill="#d4cfc8" opacity="0.35"/>
  <circle cx="49" cy="129" r="1" fill="#d4cfc8" opacity="0.3"/>
  <circle cx="172" cy="113" r="1.2" fill="#d4cfc8" opacity="0.3"/>
  <circle cx="322" cy="141" r="1" fill="#d4cfc8" opacity="0.3"/>
  <circle cx="78" cy="188" r="1.2" fill="#d4cfc8" opacity="0.25"/>
  <circle cx="215" cy="164" r="1" fill="#d4cfc8" opacity="0.28"/>
  <circle cx="371" cy="176" r="1.2" fill="#d4cfc8" opacity="0.25"/>
  <!-- Moon -->
  <circle cx="312" cy="117" r="51" fill="#1a1810" opacity="0.6"/>
  <circle cx="312" cy="117" r="37" fill="#2a2618"/>
  <circle cx="312" cy="117" r="28" fill="#3a3428"/>
  <!-- Temple platform -->
  <rect x="0" y="680" width="390" height="28" fill="#1e1c18"/>
  <rect x="0" y="708" width="390" height="23" fill="#221f1a"/>
  <rect x="0" y="731" width="390" height="113" fill="#1a1814"/>
  <!-- Columns -->
  <rect x="29" y="469" width="27" height="215" fill="#1e1c18"/>
  <rect x="31" y="469" width="23" height="215" fill="#221f1a"/>
  <ellipse cx="43" cy="469" rx="14" ry="7" fill="#2a2720"/>
  <rect x="98" y="422" width="27" height="262" fill="#1e1c18"/>
  <rect x="100" y="422" width="23" height="262" fill="#221f1a"/>
  <ellipse cx="112" cy="422" rx="14" ry="7" fill="#2a2720"/>
  <rect x="168" y="398" width="27" height="285" fill="#1e1c18"/>
  <rect x="170" y="398" width="23" height="285" fill="#221f1a"/>
  <ellipse cx="182" cy="398" rx="14" ry="7" fill="#2a2720"/>
  <rect x="238" y="410" width="27" height="273" fill="#1e1c18"/>
  <rect x="240" y="410" width="23" height="273" fill="#221f1a"/>
  <ellipse cx="252" cy="410" rx="14" ry="7" fill="#2a2720"/>
  <rect x="308" y="445" width="27" height="238" fill="#1e1c18"/>
  <rect x="310" y="445" width="23" height="238" fill="#221f1a"/>
  <ellipse cx="322" cy="445" rx="14" ry="7" fill="#2a2720"/>
  <!-- Column fluting -->
  <line x1="37" y1="480" x2="37" y2="680" stroke="#100e0c" stroke-width="1" opacity="0.5"/>
  <line x1="49" y1="480" x2="49" y2="680" stroke="#100e0c" stroke-width="1" opacity="0.5"/>
  <line x1="107" y1="433" x2="107" y2="680" stroke="#100e0c" stroke-width="1" opacity="0.5"/>
  <line x1="119" y1="433" x2="119" y2="680" stroke="#100e0c" stroke-width="1" opacity="0.5"/>
  <!-- Entablature -->
  <rect x="0" y="387" width="390" height="23" fill="#221f1a"/>
  <rect x="0" y="368" width="390" height="19" fill="#1e1c18"/>
  <!-- Bottom safe zone -->
  <rect x="0" y="750" width="390" height="94" fill="#0f0e0d" opacity="0.8"/>
</svg>