<svg width="375" height="812" viewBox="0 0 390 260" xmlns="http://www.w3.org/2000/svg">
  <rect width="390" height="260" fill="#12100e"/>
  <line x1="0" y1="37" x2="117" y2="0" stroke="#c9a96e" stroke-width="1" opacity="0.08"/>
  <line x1="0" y1="94" x2="176" y2="0" stroke="#c9a96e" stroke-width="0.8" opacity="0.06"/>
  <line x1="0" y1="149" x2="234" y2="0" stroke="#c9a96e" stroke-width="1" opacity="0.07"/>
  <line x1="0" y1="204" x2="293" y2="0" stroke="#c9a96e" stroke-width="0.8" opacity="0.06"/>
  <line x1="0" y1="260" x2="352" y2="0" stroke="#c9a96e" stroke-width="1" opacity="0.08"/>
  <line x1="39" y1="260" x2="390" y2="0" stroke="#c9a96e" stroke-width="0.8" opacity="0.06"/>
  <line x1="98" y1="260" x2="390" y2="37" stroke="#c9a96e" stroke-width="1" opacity="0.07"/>
  <line x1="156" y1="260" x2="390" y2="94" stroke="#c9a96e" stroke-width="0.8" opacity="0.06"/>
  <line x1="215" y1="260" x2="390" y2="149" stroke="#c9a96e" stroke-width="1" opacity="0.07"/>
  <line x1="273" y1="260" x2="390" y2="204" stroke="#c9a96e" stroke-width="0.8" opacity="0.05"/>
  <ellipse cx="195" cy="130" rx="137" ry="93" fill="#c9a96e" opacity="0.03"/>
  <ellipse cx="195" cy="130" rx="78" ry="52" fill="#c9a96e" opacity="0.03"/>
  <circle cx="107" cy="84" r="2.3" fill="#c9a96e" opacity="0.25"/>
  <circle cx="195" cy="56" r="1.6" fill="#c9a96e" opacity="0.2"/>
  <circle cx="289" cy="102" r="2" fill="#c9a96e" opacity="0.22"/>
  <circle cx="141" cy="186" r="1.6" fill="#c9a96e" opacity="0.18"/>
  <circle cx="254" cy="176" r="2.3" fill="#c9a96e" opacity="0.2"/>
  <circle cx="55" cy="139" r="1.4" fill="#c9a96e" opacity="0.15"/>
  <circle cx="332" cy="204" r="1.8" fill="#c9a96e" opacity="0.18"/>
  <circle cx="39" cy="47" r="1.6" fill="#c9a96e" opacity="0.15"/>
  <circle cx="352" cy="56" r="1.4" fill="#c9a96e" opacity="0.15"/>
</svg>