<svg width="375" height="812" viewBox="0 0 390 260" xmlns="http://www.w3.org/2000/svg">
  <rect width="390" height="260" fill="#1a1710"/>
  <line x1="0" y1="22" x2="390" y2="26" stroke="#c9a96e" stroke-width="0.8" opacity="0.08"/>
  <line x1="0" y1="42" x2="390" y2="38" stroke="#c9a96e" stroke-width="0.6" opacity="0.06"/>
  <line x1="0" y1="60" x2="390" y2="63" stroke="#c9a96e" stroke-width="0.8" opacity="0.07"/>
  <line x1="0" y1="80" x2="390" y2="77" stroke="#c9a96e" stroke-width="0.6" opacity="0.06"/>
  <line x1="0" y1="100" x2="390" y2="103" stroke="#c9a96e" stroke-width="0.8" opacity="0.08"/>
  <line x1="0" y1="120" x2="390" y2="117" stroke="#c9a96e" stroke-width="0.6" opacity="0.06"/>
  <line x1="0" y1="140" x2="390" y2="143" stroke="#c9a96e" stroke-width="0.8" opacity="0.07"/>
  <line x1="0" y1="160" x2="390" y2="157" stroke="#c9a96e" stroke-width="0.6" opacity="0.05"/>
  <line x1="0" y1="180" x2="390" y2="183" stroke="#c9a96e" stroke-width="0.8" opacity="0.08"/>
  <line x1="0" y1="200" x2="390" y2="197" stroke="#c9a96e" stroke-width="0.6" opacity="0.06"/>
  <line x1="0" y1="220" x2="390" y2="223" stroke="#c9a96e" stroke-width="0.8" opacity="0.07"/>
  <line x1="0" y1="240" x2="390" y2="238" stroke="#c9a96e" stroke-width="0.6" opacity="0.05"/>
  <line x1="59" y1="0" x2="62" y2="260" stroke="#c9a96e" stroke-width="0.6" opacity="0.04"/>
  <line x1="137" y1="0" x2="133" y2="260" stroke="#c9a96e" stroke-width="0.6" opacity="0.04"/>
  <line x1="215" y1="0" x2="219" y2="260" stroke="#c9a96e" stroke-width="0.6" opacity="0.04"/>
  <line x1="293" y1="0" x2="289" y2="260" stroke="#c9a96e" stroke-width="0.6" opacity="0.04"/>
  <line x1="361" y1="0" x2="363" y2="260" stroke="#c9a96e" stroke-width="0.6" opacity="0.03"/>
  <path d="M0 0 L8 16 L2 35 L10 58 L4 85 L12 113 L2 140 L8 172 L4 203 L10 231 L2 260 L0 260 Z" fill="#100e0c" opacity="0.5"/>
  <path d="M390 0 L382 19 L388 43 L381 70 L387 98 L380 129 L386 156 L384 188 L388 215 L383 243 L390 260 Z" fill="#100e0c" opacity="0.5"/>
</svg>