<svg width="375" height="812" viewBox="0 0 390 260" xmlns="http://www.w3.org/2000/svg">
  <rect width="390" height="260" fill="#131009"/>
  <rect x="0" y="168" width="390" height="92" fill="#0e0d08" opacity="0.6"/>
  <rect x="0" y="0" width="390" height="74" fill="#0e0d08" opacity="0.4"/>
  <line x1="0" y1="70" x2="390" y2="70" stroke="#c9a96e" stroke-width="1.2" opacity="0.35"/>
  <line x1="0" y1="171" x2="390" y2="171" stroke="#c9a96e" stroke-width="1.2" opacity="0.35"/>
  <!-- FIGURE 1 tall man arms raised -->
  <circle cx="68" cy="87" r="8.8" fill="#1e1a14"/>
  <line x1="68" y1="96" x2="68" y2="137" stroke="#1e1a14" stroke-width="7.8" stroke-linecap="round"/>
  <line x1="68" y1="109" x2="47" y2="94" stroke="#1e1a14" stroke-width="4.9" stroke-linecap="round"/>
  <line x1="68" y1="109" x2="89" y2="94" stroke="#1e1a14" stroke-width="4.9" stroke-linecap="round"/>
  <line x1="68" y1="137" x2="57" y2="168" stroke="#1e1a14" stroke-width="4.9" stroke-linecap="round"/>
  <line x1="68" y1="137" x2="79" y2="168" stroke="#1e1a14" stroke-width="4.9" stroke-linecap="round"/>
  <!-- FIGURE 2 child left -->
  <circle cx="121" cy="113" r="6.8" fill="#1e1a14"/>
  <line x1="121" y1="120" x2="121" y2="152" stroke="#1e1a14" stroke-width="5.9" stroke-linecap="round"/>
  <line x1="121" y1="132" x2="107" y2="124" stroke="#1e1a14" stroke-width="3.9" stroke-linecap="round"/>
  <line x1="121" y1="132" x2="135" y2="124" stroke="#1e1a14" stroke-width="3.9" stroke-linecap="round"/>
  <line x1="121" y1="152" x2="111" y2="168" stroke="#1e1a14" stroke-width="3.9" stroke-linecap="round"/>
  <line x1="121" y1="152" x2="131" y2="168" stroke="#1e1a14" stroke-width="3.9" stroke-linecap="round"/>
  <!-- FIGURE 3 tall man centre right -->
  <circle cx="230" cy="87" r="8.8" fill="#1e1a14"/>
  <line x1="230" y1="96" x2="230" y2="137" stroke="#1e1a14" stroke-width="7.8" stroke-linecap="round"/>
  <line x1="230" y1="109" x2="207" y2="113" stroke="#1e1a14" stroke-width="4.9" stroke-linecap="round"/>
  <line x1="230" y1="109" x2="254" y2="107" stroke="#1e1a14" stroke-width="4.9" stroke-linecap="round"/>
  <line x1="230" y1="137" x2="219" y2="168" stroke="#1e1a14" stroke-width="4.9" stroke-linecap="round"/>
  <line x1="230" y1="137" x2="241" y2="168" stroke="#1e1a14" stroke-width="4.9" stroke-linecap="round"/>
  <!-- FIGURE 4 child right -->
  <circle cx="285" cy="109" r="6.8" fill="#1e1a14"/>
  <line x1="285" y1="116" x2="285" y2="148" stroke="#1e1a14" stroke-width="5.9" stroke-linecap="round"/>
  <line x1="285" y1="128" x2="270" y2="120" stroke="#1e1a14" stroke-width="3.9" stroke-linecap="round"/>
  <line x1="285" y1="128" x2="300" y2="120" stroke="#1e1a14" stroke-width="3.9" stroke-linecap="round"/>
  <line x1="285" y1="148" x2="274" y2="168" stroke="#1e1a14" stroke-width="3.9" stroke-linecap="round"/>
  <line x1="285" y1="148" x2="296" y2="168" stroke="#1e1a14" stroke-width="3.9" stroke-linecap="round"/>
  <!-- Ground -->
  <line x1="0" y1="171" x2="390" y2="171" stroke="#c9a96e" stroke-width="1" opacity="0.2"/>
  <!-- Top tick marks -->
  <line x1="19" y1="52" x2="19" y2="67" stroke="#c9a96e" stroke-width="1.4" opacity="0.25"/>
  <line x1="43" y1="52" x2="43" y2="67" stroke="#c9a96e" stroke-width="1.4" opacity="0.25"/>
  <line x1="66" y1="52" x2="66" y2="67" stroke="#c9a96e" stroke-width="1.4" opacity="0.25"/>
  <line x1="90" y1="52" x2="90" y2="67" stroke="#c9a96e" stroke-width="1.4" opacity="0.25"/>
  <line x1="113" y1="52" x2="113" y2="67" stroke="#c9a96e" stroke-width="1.4" opacity="0.25"/>
  <line x1="137" y1="52" x2="137" y2="67" stroke="#c9a96e" stroke-width="1.4" opacity="0.25"/>
  <line x1="160" y1="52" x2="160" y2="67" stroke="#c9a96e" stroke-width="1.4" opacity="0.25"/>
  <line x1="184" y1="52" x2="184" y2="67" stroke="#c9a96e" stroke-width="1.4" opacity="0.25"/>
  <line x1="207" y1="52" x2="207" y2="67" stroke="#c9a96e" stroke-width="1.4" opacity="0.25"/>
  <line x1="230" y1="52" x2="230" y2="67" stroke="#c9a96e" stroke-width="1.4" opacity="0.25"/>
  <line x1="254" y1="52" x2="254" y2="67" stroke="#c9a96e" stroke-width="1.4" opacity="0.25"/>
  <line x1="277" y1="52" x2="277" y2="67" stroke="#c9a96e" stroke-width="1.4" opacity="0.25"/>
  <line x1="301" y1="52" x2="301" y2="67" stroke="#c9a96e" stroke-width="1.4" opacity="0.25"/>
  <line x1="324" y1="52" x2="324" y2="67" stroke="#c9a96e" stroke-width="1.4" opacity="0.25"/>
  <line x1="348" y1="52" x2="348" y2="67" stroke="#c9a96e" stroke-width="1.4" opacity="0.25"/>
  <line x1="371" y1="52" x2="371" y2="67" stroke="#c9a96e" stroke-width="1.4" opacity="0.25"/>
  <!-- Bottom band -->
  <rect x="0" y="186" width="390" height="23" fill="#0e0d08"/>
  <line x1="0" y1="186" x2="390" y2="186" stroke="#c9a96e" stroke-width="1" opacity="0.2"/>
  <line x1="0" y1="209" x2="390" y2="209" stroke="#c9a96e" stroke-width="1" opacity="0.2"/>
  <path d="M0 197 C19 191 39 203 59 197 C78 191 98 203 117 197 C137 191 156 203 176 197 C195 191 215 203 234 197 C254 191 273 203 293 197 C312 191 332 203 352 197 C371 191 382 196 390 197" stroke="#c9a96e" stroke-width="1" fill="none" opacity="0.2"/>
</svg>