<svg width="750" height="500" viewBox="0 0 390 260" xmlns="http://www.w3.org/2000/svg">
  <rect width="390" height="260" fill="#14110c"/>
  <path d="M156 130 L39 56" stroke="#c9a96e" stroke-width="1.6" fill="none" opacity="0.3" stroke-linecap="round"/>
  <path d="M156 130 L0 149" stroke="#c9a96e" stroke-width="1.4" fill="none" opacity="0.25" stroke-linecap="round"/>
  <path d="M156 130 L59 260" stroke="#c9a96e" stroke-width="1.6" fill="none" opacity="0.28" stroke-linecap="round"/>
  <path d="M156 130 L176 260" stroke="#c9a96e" stroke-width="1.2" fill="none" opacity="0.22" stroke-linecap="round"/>
  <path d="M156 130 L273 205" stroke="#c9a96e" stroke-width="1.4" fill="none" opacity="0.25" stroke-linecap="round"/>
  <path d="M156 130 L332 112" stroke="#c9a96e" stroke-width="1.6" fill="none" opacity="0.3" stroke-linecap="round"/>
  <path d="M156 130 L312 19" stroke="#c9a96e" stroke-width="1.4" fill="none" opacity="0.25" stroke-linecap="round"/>
  <path d="M156 130 L107 0" stroke="#c9a96e" stroke-width="1.2" fill="none" opacity="0.22" stroke-linecap="round"/>
  <path d="M78 86 L19 102" stroke="#c9a96e" stroke-width="1" fill="none" opacity="0.18" stroke-linecap="round"/>
  <path d="M78 86 L98 37" stroke="#c9a96e" stroke-width="1" fill="none" opacity="0.16" stroke-linecap="round"/>
  <path d="M107 260 L137 224" stroke="#c9a96e" stroke-width="1" fill="none" opacity="0.18" stroke-linecap="round"/>
  <path d="M254 179 L234 242" stroke="#c9a96e" stroke-width="1" fill="none" opacity="0.16" stroke-linecap="round"/>
  <path d="M254 179 L303 224" stroke="#c9a96e" stroke-width="1" fill="none" opacity="0.16" stroke-linecap="round"/>
  <path d="M308 65" stroke="#c9a96e" stroke-width="1" fill="none" opacity="0.18" stroke-linecap="round"/>
  <path d="M308 65 L352 37" stroke="#c9a96e" stroke-width="1" fill="none" opacity="0.18" stroke-linecap="round"/>
  <path d="M308 65 L390 75" stroke="#c9a96e" stroke-width="1" fill="none" opacity="0.16" stroke-linecap="round"/>
  <path d="M308 65 L283 0" stroke="#c9a96e" stroke-width="1" fill="none" opacity="0.16" stroke-linecap="round"/>
  <path d="M332 112 L390 102" stroke="#c9a96e" stroke-width="1" fill="none" opacity="0.18" stroke-linecap="round"/>
  <path d="M332 112 L371 168" stroke="#c9a96e" stroke-width="1" fill="none" opacity="0.16" stroke-linecap="round"/>
  <path d="M39 56 L68 33" stroke="#c9a96e" stroke-width="0.6" fill="none" opacity="0.12" stroke-linecap="round"/>
  <path d="M117 196 L88 224" stroke="#c9a96e" stroke-width="0.6" fill="none" opacity="0.1" stroke-linecap="round"/>
  <path d="M215 163 L195 205" stroke="#c9a96e" stroke-width="0.6" fill="none" opacity="0.1" stroke-linecap="round"/>
  <path d="M273 47 L303 28" stroke="#c9a96e" stroke-width="0.6" fill="none" opacity="0.12" stroke-linecap="round"/>
  <circle cx="156" cy="130" r="7.8" fill="#c9a96e" opacity="0.08"/>
  <circle cx="156" cy="130" r="3.9" fill="#c9a96e" opacity="0.18"/>
  <circle cx="156" cy="130" r="2" fill="#c9a96e" opacity="0.5"/>
  <circle cx="308" cy="65" r="2.9" fill="#c9a96e" opacity="0.3"/>
  <circle cx="78" cy="86" r="2.3" fill="#c9a96e" opacity="0.25"/>
  <circle cx="254" cy="179" r="2.3" fill="#c9a96e" opacity="0.25"/>
  <circle cx="332" cy="112" r="2" fill="#c9a96e" opacity="0.2"/>
</svg>