<svg width="750" height="500" viewBox="0 0 390 260" xmlns="http://www.w3.org/2000/svg">
  <rect width="390" height="260" fill="#0e0d12"/>
  <circle cx="23" cy="15" r="1" fill="#d4cfc8" opacity="0.3"/>
  <circle cx="68" cy="33" r="1.2" fill="#d4cfc8" opacity="0.35"/>
  <circle cx="113" cy="11" r="0.8" fill="#d4cfc8" opacity="0.25"/>
  <circle cx="160" cy="41" r="1" fill="#d4cfc8" opacity="0.3"/>
  <circle cx="215" cy="19" r="1.4" fill="#d4cfc8" opacity="0.4"/>
  <circle cx="273" cy="33" r="1" fill="#d4cfc8" opacity="0.3"/>
  <circle cx="328" cy="15" r="1.2" fill="#d4cfc8" opacity="0.35"/>
  <circle cx="371" cy="37" r="0.8" fill="#d4cfc8" opacity="0.25"/>
  <circle cx="43" cy="75" r="1" fill="#d4cfc8" opacity="0.28"/>
  <circle cx="94" cy="93" r="0.8" fill="#d4cfc8" opacity="0.22"/>
  <circle cx="146" cy="70" r="1.2" fill="#d4cfc8" opacity="0.32"/>
  <circle cx="191" cy="97" r="1" fill="#d4cfc8" opacity="0.28"/>
  <circle cx="244" cy="78" r="0.8" fill="#d4cfc8" opacity="0.22"/>
  <circle cx="297" cy="102" r="1.2" fill="#d4cfc8" opacity="0.3"/>
  <circle cx="348" cy="82" r="1" fill="#d4cfc8" opacity="0.28"/>
  <circle cx="381" cy="112" r="0.8" fill="#d4cfc8" opacity="0.2"/>
  <circle cx="19" cy="134" r="1" fill="#d4cfc8" opacity="0.25"/>
  <circle cx="74" cy="149" r="0.8" fill="#d4cfc8" opacity="0.2"/>
  <circle cx="127" cy="127" r="1.2" fill="#d4cfc8" opacity="0.3"/>
  <circle cx="176" cy="153" r="1" fill="#d4cfc8" opacity="0.25"/>
  <circle cx="225" cy="134" r="0.8" fill="#d4cfc8" opacity="0.22"/>
  <circle cx="278" cy="159" r="1.2" fill="#d4cfc8" opacity="0.3"/>
  <circle cx="328" cy="141" r="1" fill="#d4cfc8" opacity="0.25"/>
  <circle cx="375" cy="164" r="0.8" fill="#d4cfc8" opacity="0.2"/>
  <circle cx="39" cy="196" r="1" fill="#d4cfc8" opacity="0.22"/>
  <circle cx="98" cy="214" r="0.8" fill="#d4cfc8" opacity="0.18"/>
  <circle cx="152" cy="186" r="1.2" fill="#d4cfc8" opacity="0.28"/>
  <circle cx="205" cy="220" r="1" fill="#d4cfc8" opacity="0.22"/>
  <circle cx="258" cy="201" r="0.8" fill="#d4cfc8" opacity="0.18"/>
  <circle cx="308" cy="224" r="1.2" fill="#d4cfc8" opacity="0.25"/>
  <circle cx="362" cy="196" r="1" fill="#d4cfc8" opacity="0.22"/>
  <!-- Constellation stars — bronze -->
  <circle cx="107" cy="56" r="2.7" fill="#c9a96e" opacity="0.8"/>
  <circle cx="156" cy="41" r="2.3" fill="#c9a96e" opacity="0.7"/>
  <circle cx="205" cy="56" r="2.7" fill="#c9a96e" opacity="0.8"/>
  <circle cx="127" cy="97" r="1.9" fill="#c9a96e" opacity="0.65"/>
  <circle cx="186" cy="97" r="1.9" fill="#c9a96e" opacity="0.65"/>
  <circle cx="141" cy="134" r="2.3" fill="#c9a96e" opacity="0.7"/>
  <circle cx="172" cy="134" r="2.3" fill="#c9a96e" opacity="0.7"/>
  <circle cx="107" cy="172" r="2.7" fill="#c9a96e" opacity="0.75"/>
  <circle cx="205" cy="172" r="2.7" fill="#c9a96e" opacity="0.75"/>
  <!-- Constellation lines -->
  <line x1="107" y1="56" x2="156" y2="41" stroke="#c9a96e" stroke-width="1" opacity="0.3"/>
  <line x1="156" y1="41" x2="205" y2="56" stroke="#c9a96e" stroke-width="1" opacity="0.3"/>
  <line x1="107" y1="56" x2="127" y2="97" stroke="#c9a96e" stroke-width="1" opacity="0.3"/>
  <line x1="205" y1="56" x2="186" y2="97" stroke="#c9a96e" stroke-width="1" opacity="0.3"/>
  <line x1="127" y1="97" x2="141" y2="134" stroke="#c9a96e" stroke-width="1" opacity="0.3"/>
  <line x1="186" y1="97" x2="172" y2="134" stroke="#c9a96e" stroke-width="1" opacity="0.3"/>
  <line x1="141" y1="134" x2="107" y2="172" stroke="#c9a96e" stroke-width="1" opacity="0.3"/>
  <line x1="172" y1="134" x2="205" y2="172" stroke="#c9a96e" stroke-width="1" opacity="0.3"/>
  <line x1="127" y1="97" x2="186" y2="97" stroke="#c9a96e" stroke-width="1" opacity="0.25"/>
  <!-- Second constellation -->
  <circle cx="289" cy="65" r="2.1" fill="#c9a96e" opacity="0.6"/>
  <circle cx="316" cy="52" r="1.9" fill="#c9a96e" opacity="0.55"/>
  <circle cx="340" cy="71" r="2.1" fill="#c9a96e" opacity="0.6"/>
  <circle cx="312" cy="93" r="1.9" fill="#c9a96e" opacity="0.55"/>
  <line x1="289" y1="65" x2="316" y2="52" stroke="#c9a96e" stroke-width="1" opacity="0.25"/>
  <line x1="316" y1="52" x2="340" y2="71" stroke="#c9a96e" stroke-width="1" opacity="0.25"/>
  <line x1="289" y1="65" x2="312" y2="93" stroke="#c9a96e" stroke-width="1" opacity="0.25"/>
  <line x1="340" y1="71" x2="312" y2="93" stroke="#c9a96e" stroke-width="1" opacity="0.25"/>
  <!-- Grid -->
  <line x1="0" y1="130" x2="390" y2="130" stroke="#c9a96e" stroke-width="0.6" opacity="0.07" stroke-dasharray="6,12"/>
  <line x1="195" y1="0" x2="195" y2="260" stroke="#c9a96e" stroke-width="0.6" opacity="0.07" stroke-dasharray="6,12"/>
  <circle cx="195" cy="130" r="88" stroke="#c9a96e" stroke-width="0.6" fill="none" opacity="0.06" stroke-dasharray="6,12"/>
</svg>