<svg width="1024" height="1024" viewBox="0 0 100 100" xmlns="http://www.w3.org/2000/svg">
  <rect width="100" height="100" rx="24" fill="#18161a"/>
  <path d="M50 10 C50 10 41 18 41 26 C41 30 43 33 46 34.5 C44 31 44 27 47 24 C47 30 49 33 50 35 C51 33 53 30 53 24 C56 27 56 31 54 34.5 C57 33 59 30 59 26 C59 18 50 10 50 10 Z" fill="#c9a96e"/>
  <path d="M50 18 C50 18 46 23 46 27 C46 30 48 32 50 33 C52 32 54 30 54 27 C54 23 50 18 50 18 Z" fill="#e8c87a" opacity="0.6"/>
  <line x1="50" y1="35" x2="50" y2="43" stroke="#c9a96e" stroke-width="1.4" stroke-dasharray="2,2.5" stroke-linecap="round"/>
  <rect x="22" y="43" width="56" height="42" rx="3" fill="none" stroke="#b8a99a" stroke-width="1.6"/>
  <path d="M22 43 C22 38 26 36 30 38 C26 38 25 41 22 43 Z" fill="none" stroke="#b8a99a" stroke-width="1.2"/>
  <path d="M78 43 C78 38 74 36 70 38 C74 38 75 41 78 43 Z" fill="none" stroke="#b8a99a" stroke-width="1.2"/>
  <path d="M22 85 C22 90 26 92 30 90 C26 90 25 87 22 85 Z" fill="none" stroke="#b8a99a" stroke-width="1.2"/>
  <path d="M78 85 C78 90 74 92 70 90 C74 90 75 87 78 85 Z" fill="none" stroke="#b8a99a" stroke-width="1.2"/>
  <line x1="32" y1="55" x2="68" y2="55" stroke="#b8a99a" stroke-width="1.3" stroke-linecap="round"/>
  <line x1="32" y1="63" x2="68" y2="63" stroke="#b8a99a" stroke-width="1.3" stroke-linecap="round"/>
  <line x1="32" y1="71" x2="55" y2="71" stroke="#b8a99a" stroke-width="1.3" stroke-linecap="round"/>
  <line x1="22" y1="49" x2="78" y2="49" stroke="#b8a99a" stroke-width="0.5" stroke-linecap="round" opacity="0.35"/>
</svg>